<mxfile host="app.diagrams.net" modified="2023-09-22T03:50:38.631Z" agent="Mozilla/5.0 (Windows NT 10.0; Win64; x64) AppleWebKit/537.36 (KHTML, like Gecko) Chrome/116.0.0.0 Safari/537.36" etag="ZUELfd8Fp45s_WTvVXPt" version="21.8.0" type="github">
  <diagram name="第 1 页" id="aLLTfHScYJHFihjwfMha">
    <mxGraphModel dx="1426" dy="750" grid="1" gridSize="10" guides="1" tooltips="1" connect="1" arrows="1" fold="1" page="1" pageScale="1" pageWidth="827" pageHeight="1169" math="0" shadow="0">
      <root>
        <mxCell id="0" />
        <mxCell id="1" parent="0" />
        <mxCell id="ivo4dgjG53fYLEMy_WAS-6" value="Actor" style="shape=umlActor;verticalLabelPosition=bottom;verticalAlign=top;html=1;" vertex="1" parent="1">
          <mxGeometry x="70" y="160" width="30" height="60" as="geometry" />
        </mxCell>
        <mxCell id="ivo4dgjG53fYLEMy_WAS-8" value="" style="html=1;points=[[0,0,0,0,5],[0,1,0,0,-5],[1,0,0,0,5],[1,1,0,0,-5]];perimeter=orthogonalPerimeter;outlineConnect=0;targetShapes=umlLifeline;portConstraint=eastwest;newEdgeStyle={&quot;curved&quot;:0,&quot;rounded&quot;:0};" vertex="1" parent="1">
          <mxGeometry x="80" y="260" width="10" height="390" as="geometry" />
        </mxCell>
        <mxCell id="ivo4dgjG53fYLEMy_WAS-10" value="vpush管理后台" style="html=1;whiteSpace=wrap;" vertex="1" parent="1">
          <mxGeometry x="304" y="170" width="110" height="50" as="geometry" />
        </mxCell>
        <mxCell id="ivo4dgjG53fYLEMy_WAS-11" value="vpush服务器" style="html=1;whiteSpace=wrap;" vertex="1" parent="1">
          <mxGeometry x="590" y="170" width="110" height="50" as="geometry" />
        </mxCell>
        <mxCell id="ivo4dgjG53fYLEMy_WAS-12" value="推送引擎" style="html=1;whiteSpace=wrap;" vertex="1" parent="1">
          <mxGeometry x="850" y="170" width="110" height="50" as="geometry" />
        </mxCell>
        <mxCell id="ivo4dgjG53fYLEMy_WAS-13" value="" style="html=1;points=[[0,0,0,0,5],[0,1,0,0,-5],[1,0,0,0,5],[1,1,0,0,-5]];perimeter=orthogonalPerimeter;outlineConnect=0;targetShapes=umlLifeline;portConstraint=eastwest;newEdgeStyle={&quot;curved&quot;:0,&quot;rounded&quot;:0};" vertex="1" parent="1">
          <mxGeometry x="364" y="270" width="10" height="180" as="geometry" />
        </mxCell>
        <mxCell id="ivo4dgjG53fYLEMy_WAS-15" value="" style="html=1;points=[[0,0,0,0,5],[0,1,0,0,-5],[1,0,0,0,5],[1,1,0,0,-5]];perimeter=orthogonalPerimeter;outlineConnect=0;targetShapes=umlLifeline;portConstraint=eastwest;newEdgeStyle={&quot;curved&quot;:0,&quot;rounded&quot;:0};" vertex="1" parent="1">
          <mxGeometry x="354" y="250" width="10" height="410" as="geometry" />
        </mxCell>
        <mxCell id="ivo4dgjG53fYLEMy_WAS-14" value="申请使用原子通知&lt;br&gt;配置优先级，显示位置等等" style="html=1;verticalAlign=bottom;startArrow=oval;endArrow=block;startSize=8;curved=0;rounded=0;entryX=0;entryY=0;entryDx=0;entryDy=5;" edge="1" target="ivo4dgjG53fYLEMy_WAS-13" parent="1">
          <mxGeometry relative="1" as="geometry">
            <mxPoint x="90" y="275" as="sourcePoint" />
          </mxGeometry>
        </mxCell>
        <mxCell id="ivo4dgjG53fYLEMy_WAS-16" value="" style="html=1;points=[[0,0,0,0,5],[0,1,0,0,-5],[1,0,0,0,5],[1,1,0,0,-5]];perimeter=orthogonalPerimeter;outlineConnect=0;targetShapes=umlLifeline;portConstraint=eastwest;newEdgeStyle={&quot;curved&quot;:0,&quot;rounded&quot;:0};" vertex="1" parent="1">
          <mxGeometry x="640" y="240" width="10" height="410" as="geometry" />
        </mxCell>
        <mxCell id="ivo4dgjG53fYLEMy_WAS-19" value="" style="html=1;points=[[0,0,0,0,5],[0,1,0,0,-5],[1,0,0,0,5],[1,1,0,0,-5]];perimeter=orthogonalPerimeter;outlineConnect=0;targetShapes=umlLifeline;portConstraint=eastwest;newEdgeStyle={&quot;curved&quot;:0,&quot;rounded&quot;:0};" vertex="1" parent="1">
          <mxGeometry x="650" y="425" width="10" height="135" as="geometry" />
        </mxCell>
        <mxCell id="ivo4dgjG53fYLEMy_WAS-20" value="通知push后台服务器配置有更新" style="html=1;verticalAlign=bottom;startArrow=none;endArrow=block;startSize=8;curved=0;rounded=0;entryX=0;entryY=0;entryDx=0;entryDy=5;startFill=0;dashed=1;" edge="1" target="ivo4dgjG53fYLEMy_WAS-19" parent="1" source="ivo4dgjG53fYLEMy_WAS-13">
          <mxGeometry relative="1" as="geometry">
            <mxPoint x="380" y="295" as="sourcePoint" />
          </mxGeometry>
        </mxCell>
        <mxCell id="ivo4dgjG53fYLEMy_WAS-21" value="" style="html=1;points=[[0,0,0,0,5],[0,1,0,0,-5],[1,0,0,0,5],[1,1,0,0,-5]];perimeter=orthogonalPerimeter;outlineConnect=0;targetShapes=umlLifeline;portConstraint=eastwest;newEdgeStyle={&quot;curved&quot;:0,&quot;rounded&quot;:0};" vertex="1" parent="1">
          <mxGeometry x="900" y="230" width="10" height="410" as="geometry" />
        </mxCell>
        <mxCell id="ivo4dgjG53fYLEMy_WAS-23" value="" style="html=1;points=[[0,0,0,0,5],[0,1,0,0,-5],[1,0,0,0,5],[1,1,0,0,-5]];perimeter=orthogonalPerimeter;outlineConnect=0;targetShapes=umlLifeline;portConstraint=eastwest;newEdgeStyle={&quot;curved&quot;:0,&quot;rounded&quot;:0};" vertex="1" parent="1">
          <mxGeometry x="910" y="435" width="10" height="175" as="geometry" />
        </mxCell>
        <mxCell id="ivo4dgjG53fYLEMy_WAS-24" value="增量通知客户端配置有更新" style="html=1;verticalAlign=bottom;endArrow=block;curved=0;rounded=0;entryX=0;entryY=0;entryDx=0;entryDy=5;dashed=1;" edge="1" target="ivo4dgjG53fYLEMy_WAS-23" parent="1" source="ivo4dgjG53fYLEMy_WAS-19">
          <mxGeometry relative="1" as="geometry">
            <mxPoint x="660" y="395" as="sourcePoint" />
          </mxGeometry>
        </mxCell>
        <mxCell id="ivo4dgjG53fYLEMy_WAS-25" value="回执收到消息了" style="html=1;verticalAlign=bottom;endArrow=open;dashed=1;endSize=8;curved=0;rounded=0;" edge="1" source="ivo4dgjG53fYLEMy_WAS-23" parent="1" target="ivo4dgjG53fYLEMy_WAS-19">
          <mxGeometry relative="1" as="geometry">
            <mxPoint x="660" y="425" as="targetPoint" />
            <Array as="points">
              <mxPoint x="880" y="470" />
              <mxPoint x="860" y="470" />
            </Array>
          </mxGeometry>
        </mxCell>
        <mxCell id="ivo4dgjG53fYLEMy_WAS-26" value="" style="html=1;points=[[0,0,0,0,5],[0,1,0,0,-5],[1,0,0,0,5],[1,1,0,0,-5]];perimeter=orthogonalPerimeter;outlineConnect=0;targetShapes=umlLifeline;portConstraint=eastwest;newEdgeStyle={&quot;curved&quot;:0,&quot;rounded&quot;:0};" vertex="1" parent="1">
          <mxGeometry x="375" y="300" width="10" height="40" as="geometry" />
        </mxCell>
        <mxCell id="ivo4dgjG53fYLEMy_WAS-27" value="人工审核通过" style="html=1;align=left;spacingLeft=2;endArrow=block;rounded=0;edgeStyle=orthogonalEdgeStyle;curved=0;rounded=0;exitX=1;exitY=0;exitDx=0;exitDy=5;exitPerimeter=0;" edge="1" target="ivo4dgjG53fYLEMy_WAS-26" parent="1" source="ivo4dgjG53fYLEMy_WAS-13">
          <mxGeometry relative="1" as="geometry">
            <mxPoint x="380" y="280" as="sourcePoint" />
            <Array as="points">
              <mxPoint x="410" y="275" />
              <mxPoint x="410" y="310" />
            </Array>
          </mxGeometry>
        </mxCell>
        <mxCell id="ivo4dgjG53fYLEMy_WAS-28" value="同步通知审核结果" style="html=1;verticalAlign=bottom;endArrow=block;curved=0;rounded=0;" edge="1" parent="1">
          <mxGeometry width="80" relative="1" as="geometry">
            <mxPoint x="364" y="340" as="sourcePoint" />
            <mxPoint x="100" y="340" as="targetPoint" />
          </mxGeometry>
        </mxCell>
        <mxCell id="ivo4dgjG53fYLEMy_WAS-29" value="" style="html=1;points=[[0,0,0,0,5],[0,1,0,0,-5],[1,0,0,0,5],[1,1,0,0,-5]];perimeter=orthogonalPerimeter;outlineConnect=0;targetShapes=umlLifeline;portConstraint=eastwest;newEdgeStyle={&quot;curved&quot;:0,&quot;rounded&quot;:0};" vertex="1" parent="1">
          <mxGeometry x="374" y="380" width="10" height="40" as="geometry" />
        </mxCell>
        <mxCell id="ivo4dgjG53fYLEMy_WAS-30" value="生成该场景token" style="html=1;align=left;spacingLeft=2;endArrow=block;rounded=0;edgeStyle=orthogonalEdgeStyle;curved=0;rounded=0;exitX=0.6;exitY=0.528;exitDx=0;exitDy=0;exitPerimeter=0;" edge="1" target="ivo4dgjG53fYLEMy_WAS-29" parent="1" source="ivo4dgjG53fYLEMy_WAS-13">
          <mxGeometry relative="1" as="geometry">
            <mxPoint x="380" y="365" as="sourcePoint" />
            <Array as="points">
              <mxPoint x="410" y="365" />
              <mxPoint x="410" y="395" />
            </Array>
          </mxGeometry>
        </mxCell>
        <mxCell id="ivo4dgjG53fYLEMy_WAS-32" value="" style="html=1;points=[[0,0,0,0,5],[0,1,0,0,-5],[1,0,0,0,5],[1,1,0,0,-5]];perimeter=orthogonalPerimeter;outlineConnect=0;targetShapes=umlLifeline;portConstraint=eastwest;newEdgeStyle={&quot;curved&quot;:0,&quot;rounded&quot;:0};" vertex="1" parent="1">
          <mxGeometry x="920" y="513" width="10" height="40" as="geometry" />
        </mxCell>
        <mxCell id="ivo4dgjG53fYLEMy_WAS-33" value="更新存储该场景的配置信息" style="html=1;align=left;spacingLeft=2;endArrow=block;rounded=0;edgeStyle=orthogonalEdgeStyle;curved=0;rounded=0;exitX=1;exitY=0.314;exitDx=0;exitDy=0;exitPerimeter=0;" edge="1" target="ivo4dgjG53fYLEMy_WAS-32" parent="1" source="ivo4dgjG53fYLEMy_WAS-23">
          <mxGeometry relative="1" as="geometry">
            <mxPoint x="930" y="493" as="sourcePoint" />
            <Array as="points">
              <mxPoint x="960" y="490" />
              <mxPoint x="960" y="523" />
            </Array>
          </mxGeometry>
        </mxCell>
      </root>
    </mxGraphModel>
  </diagram>
</mxfile>
